# xmcd
#
# Track frame offsets: 
#        150
#        21715
#        38319
#        54352
#        71588
#        93754
#        113162
#        131530
#        148989
#        165768
#        185365
#        205591
#        229360
#
# Disc length: 3302 seconds
#
# Revision: 0
# Processed by: cddbd v1.5.2PL0 Copyright (c) Steve Scherf et al.
# Submitted via: ExactAudioCopyFreeDBPlugin 1.0
#
DISCID=a90ce40d
DTITLE=In Flames - I, the Mask
DYEAR=2019
DGENRE=melodic death metal
TTITLE0=Voices
TTITLE1=I, the Mask
TTITLE2=Call My Name
TTITLE3=I Am Above
TTITLE4=Follow Me
TTITLE5=(This Is Our) House
TTITLE6=We Will Remember
TTITLE7=In This Life
TTITLE8=Burn
TTITLE9=Deep Inside
TTITLE10=All the Pain
TTITLE11=Stay With Me
TTITLE12=Not Alone
EXTD=
EXTT0=
EXTT1=
EXTT2=
EXTT3=
EXTT4=
EXTT5=
EXTT6=
EXTT7=
EXTT8=
EXTT9=
EXTT10=
EXTT11=
EXTT12=
PLAYORDER=
